<svg width="24" height="24" viewBox="0 0 24 24" fill="none" xmlns="http://www.w3.org/2000/svg">
<path d="M19.9 12.6614C19.7397 12.4789 19.6513 12.2443 19.6513 12.0014C19.6513 11.7585 19.7397 11.5238 19.9 11.3414L21.18 9.90136C21.321 9.74403 21.4086 9.54606 21.4302 9.33587C21.4517 9.12567 21.4062 8.91405 21.3 8.73136L19.3 5.27136C19.1949 5.08888 19.0349 4.94424 18.8427 4.85805C18.6506 4.77186 18.4362 4.74852 18.23 4.79136L16.35 5.17136C16.1108 5.22079 15.8617 5.18095 15.6499 5.05936C15.438 4.93777 15.278 4.74284 15.2 4.51136L14.59 2.68136C14.5229 2.48274 14.3951 2.31022 14.2246 2.1882C14.0541 2.06618 13.8496 2.00082 13.64 2.00136H9.63999C9.42192 1.98998 9.20612 2.05029 9.02555 2.17307C8.84498 2.29586 8.70957 2.47438 8.63999 2.68136L8.07999 4.51136C8.00199 4.74284 7.84196 4.93777 7.6301 5.05936C7.41824 5.18095 7.1692 5.22079 6.92999 5.17136L4.99999 4.79136C4.80454 4.76374 4.60529 4.79458 4.42734 4.88C4.24938 4.96542 4.10069 5.10159 3.99999 5.27136L1.99999 8.73136C1.89115 8.91201 1.84221 9.12245 1.86017 9.33258C1.87813 9.54272 1.96207 9.7418 2.09999 9.90136L3.36999 11.3414C3.53031 11.5238 3.61872 11.7585 3.61872 12.0014C3.61872 12.2443 3.53031 12.4789 3.36999 12.6614L2.09999 14.1014C1.96207 14.2609 1.87813 14.46 1.86017 14.6701C1.84221 14.8803 1.89115 15.0907 1.99999 15.2714L3.99999 18.7314C4.10509 18.9138 4.26511 19.0585 4.45724 19.1447C4.64937 19.2309 4.86381 19.2542 5.06999 19.2114L6.94999 18.8314C7.1892 18.7819 7.43824 18.8218 7.6501 18.9434C7.86196 19.0649 8.02199 19.2599 8.09999 19.4914L8.70999 21.3214C8.77957 21.5283 8.91498 21.7069 9.09555 21.8296C9.27612 21.9524 9.49192 22.0127 9.70999 22.0014H13.71C13.9196 22.0019 14.1241 21.9365 14.2946 21.8145C14.4651 21.6925 14.5929 21.52 14.66 21.3214L15.27 19.4914C15.348 19.2599 15.508 19.0649 15.7199 18.9434C15.9317 18.8218 16.1808 18.7819 16.42 18.8314L18.3 19.2114C18.5062 19.2542 18.7206 19.2309 18.9127 19.1447C19.1049 19.0585 19.2649 18.9138 19.37 18.7314L21.37 15.2714C21.4762 15.0887 21.5217 14.877 21.5002 14.6669C21.4786 14.4567 21.391 14.2587 21.25 14.1014L19.9 12.6614ZM18.41 14.0014L19.21 14.9014L17.93 17.1214L16.75 16.8814C16.0298 16.7341 15.2806 16.8565 14.6446 17.2252C14.0086 17.5938 13.5301 18.1832 13.3 18.8814L12.92 20.0014H10.36L9.99999 18.8614C9.76984 18.1632 9.29137 17.5738 8.65539 17.2052C8.01942 16.8365 7.27021 16.7141 6.54999 16.8614L5.36999 17.1014L4.06999 14.8914L4.86999 13.9914C5.36194 13.4413 5.63392 12.7293 5.63392 11.9914C5.63392 11.2534 5.36194 10.5414 4.86999 9.99136L4.06999 9.09136L5.34999 6.89136L6.52999 7.13136C7.25021 7.27858 7.99942 7.15624 8.63539 6.78756C9.27137 6.41888 9.74984 5.82952 9.97999 5.13136L10.36 4.00136H12.92L13.3 5.14136C13.5301 5.83952 14.0086 6.42888 14.6446 6.79756C15.2806 7.16624 16.0298 7.28858 16.75 7.14136L17.93 6.90136L19.21 9.12136L18.41 10.0214C17.9236 10.5701 17.655 11.278 17.655 12.0114C17.655 12.7447 17.9236 13.4526 18.41 14.0014ZM11.64 8.00136C10.8489 8.00136 10.0755 8.23596 9.41771 8.67548C8.75991 9.11501 8.24722 9.73972 7.94447 10.4706C7.64172 11.2015 7.56251 12.0058 7.71685 12.7817C7.87119 13.5576 8.25215 14.2704 8.81156 14.8298C9.37097 15.3892 10.0837 15.7702 10.8596 15.9245C11.6356 16.0788 12.4398 15.9996 13.1707 15.6969C13.9016 15.3941 14.5263 14.8814 14.9659 14.2236C15.4054 13.5658 15.64 12.7925 15.64 12.0014C15.64 10.9405 15.2186 9.92308 14.4684 9.17293C13.7183 8.42279 12.7009 8.00136 11.64 8.00136ZM11.64 14.0014C11.2444 14.0014 10.8577 13.8841 10.5288 13.6643C10.1999 13.4445 9.9436 13.1322 9.79223 12.7667C9.64085 12.4013 9.60125 11.9991 9.67842 11.6112C9.75559 11.2232 9.94607 10.8669 10.2258 10.5871C10.5055 10.3074 10.8618 10.117 11.2498 10.0398C11.6378 9.96262 12.0399 10.0022 12.4054 10.1536C12.7708 10.305 13.0832 10.5613 13.3029 10.8902C13.5227 11.2191 13.64 11.6058 13.64 12.0014C13.64 12.5318 13.4293 13.0405 13.0542 13.4156C12.6791 13.7906 12.1704 14.0014 11.64 14.0014Z" fill="white"/>
</svg>
