<svg width="375" height="710" viewBox="0 0 375 710" fill="none" xmlns="http://www.w3.org/2000/svg">
<path d="M188.238 418.997C228.001 418.589 259.904 386.026 259.497 346.262L258.98 295.865C258.922 290.136 256.59 284.666 252.498 280.657C248.406 276.648 242.888 274.428 237.16 274.487L190.362 274.967L190.686 306.551C190.76 313.758 191.275 321.22 195.118 327.315C197.869 331.684 201.527 335.409 205.845 338.239C210.163 341.069 215.039 342.937 220.142 343.717L221.523 343.926C222.093 344.115 222.59 344.477 222.945 344.962C223.299 345.447 223.493 346.03 223.499 346.631C223.505 347.232 223.324 347.819 222.979 348.312C222.635 348.804 222.145 349.176 221.579 349.376L220.202 349.614C212.771 350.906 205.933 354.5 200.654 359.888C195.376 365.276 191.923 372.186 190.783 379.642L190.574 381.023C190.386 381.593 190.023 382.09 189.538 382.445C189.053 382.799 188.47 382.993 187.869 382.999C187.268 383.005 186.681 382.823 186.188 382.479C185.696 382.135 185.324 381.645 185.124 381.079L184.887 379.702C184.002 374.616 182.035 369.78 179.117 365.521C176.199 361.262 172.399 357.681 167.976 355.02C161.803 351.303 154.332 350.94 147.125 351.014L115.627 351.336C117.9 389.407 149.684 419.391 188.238 418.997Z" fill="#614FE0"/>
<path d="M115.467 344.138L147.051 343.815C154.258 343.741 161.72 343.225 167.815 339.382C172.58 336.379 176.575 332.301 179.48 327.476C183.197 321.303 183.56 313.832 183.486 306.626L183.163 275.041L136.365 275.52C130.636 275.579 125.166 277.911 121.157 282.003C117.148 286.095 114.928 291.612 114.987 297.34L115.467 344.138Z" fill="#614FE0"/>
</svg>
