<svg width="24" height="24" viewBox="0 0 24 24" fill="none" xmlns="http://www.w3.org/2000/svg">
<path d="M19.9 12.6594C19.7397 12.4769 19.6513 12.2423 19.6513 11.9994C19.6513 11.7565 19.7397 11.5219 19.9 11.3394L21.18 9.89941C21.321 9.74208 21.4086 9.54411 21.4302 9.33391C21.4517 9.12372 21.4062 8.91209 21.3 8.72941L19.3 5.26941C19.1949 5.08693 19.0349 4.94228 18.8427 4.85609C18.6506 4.7699 18.4362 4.74656 18.23 4.78941L16.35 5.16941C16.1108 5.21884 15.8617 5.179 15.6499 5.05741C15.438 4.93582 15.278 4.74089 15.2 4.50941L14.59 2.67941C14.5229 2.48079 14.3951 2.30827 14.2246 2.18625C14.0541 2.06423 13.8496 1.99887 13.64 1.99941H9.63999C9.42192 1.98802 9.20612 2.04833 9.02555 2.17112C8.84498 2.29391 8.70957 2.47243 8.63999 2.67941L8.07999 4.50941C8.00199 4.74089 7.84196 4.93582 7.6301 5.05741C7.41824 5.179 7.1692 5.21884 6.92999 5.16941L4.99999 4.78941C4.80454 4.76179 4.60529 4.79263 4.42734 4.87805C4.24938 4.96346 4.10069 5.09964 3.99999 5.26941L1.99999 8.72941C1.89115 8.91006 1.84221 9.12049 1.86017 9.33063C1.87813 9.54077 1.96207 9.73985 2.09999 9.89941L3.36999 11.3394C3.53031 11.5219 3.61872 11.7565 3.61872 11.9994C3.61872 12.2423 3.53031 12.4769 3.36999 12.6594L2.09999 14.0994C1.96207 14.259 1.87813 14.458 1.86017 14.6682C1.84221 14.8783 1.89115 15.0888 1.99999 15.2694L3.99999 18.7294C4.10509 18.9119 4.26511 19.0565 4.45724 19.1427C4.64937 19.2289 4.86381 19.2522 5.06999 19.2094L6.94999 18.8294C7.1892 18.78 7.43824 18.8198 7.6501 18.9414C7.86196 19.063 8.02199 19.2579 8.09999 19.4894L8.70999 21.3194C8.77957 21.5264 8.91498 21.7049 9.09555 21.8277C9.27612 21.9505 9.49192 22.0108 9.70999 21.9994H13.71C13.9196 21.9999 14.1241 21.9346 14.2946 21.8126C14.4651 21.6905 14.5929 21.518 14.66 21.3194L15.27 19.4894C15.348 19.2579 15.508 19.063 15.7199 18.9414C15.9317 18.8198 16.1808 18.78 16.42 18.8294L18.3 19.2094C18.5062 19.2522 18.7206 19.2289 18.9127 19.1427C19.1049 19.0565 19.2649 18.9119 19.37 18.7294L21.37 15.2694C21.4762 15.0867 21.5217 14.8751 21.5002 14.6649C21.4786 14.4547 21.391 14.2567 21.25 14.0994L19.9 12.6594ZM18.41 13.9994L19.21 14.8994L17.93 17.1194L16.75 16.8794C16.0298 16.7322 15.2806 16.8545 14.6446 17.2232C14.0086 17.5919 13.5301 18.1812 13.3 18.8794L12.92 19.9994H10.36L9.99999 18.8594C9.76984 18.1612 9.29137 17.5719 8.65539 17.2032C8.01942 16.8345 7.27021 16.7122 6.54999 16.8594L5.36999 17.0994L4.06999 14.8894L4.86999 13.9894C5.36194 13.4394 5.63392 12.7273 5.63392 11.9894C5.63392 11.2515 5.36194 10.5394 4.86999 9.98941L4.06999 9.08941L5.34999 6.88941L6.52999 7.12941C7.25021 7.27663 7.99942 7.15429 8.63539 6.78561C9.27137 6.41692 9.74984 5.82757 9.97999 5.12941L10.36 3.99941H12.92L13.3 5.13941C13.5301 5.83757 14.0086 6.42692 14.6446 6.79561C15.2806 7.16429 16.0298 7.28663 16.75 7.13941L17.93 6.89941L19.21 9.11941L18.41 10.0194C17.9236 10.5682 17.655 11.2761 17.655 12.0094C17.655 12.7427 17.9236 13.4506 18.41 13.9994ZM11.64 7.99941C10.8489 7.99941 10.0755 8.234 9.41771 8.67353C8.75991 9.11305 8.24722 9.73777 7.94447 10.4687C7.64172 11.1996 7.56251 12.0038 7.71685 12.7798C7.87119 13.5557 8.25215 14.2684 8.81156 14.8278C9.37097 15.3872 10.0837 15.7682 10.8596 15.9225C11.6356 16.0769 12.4398 15.9977 13.1707 15.6949C13.9016 15.3922 14.5263 14.8795 14.9659 14.2217C15.4054 13.5639 15.64 12.7905 15.64 11.9994C15.64 10.9385 15.2186 9.92112 14.4684 9.17098C13.7183 8.42083 12.7009 7.99941 11.64 7.99941ZM11.64 13.9994C11.2444 13.9994 10.8577 13.8821 10.5288 13.6623C10.1999 13.4426 9.9436 13.1302 9.79223 12.7648C9.64085 12.3993 9.60125 11.9972 9.67842 11.6092C9.75559 11.2213 9.94607 10.8649 10.2258 10.5852C10.5055 10.3055 10.8618 10.115 11.2498 10.0378C11.6378 9.96067 12.0399 10.0003 12.4054 10.1516C12.7708 10.303 13.0832 10.5594 13.3029 10.8883C13.5227 11.2172 13.64 11.6038 13.64 11.9994C13.64 12.5298 13.4293 13.0385 13.0542 13.4136C12.6791 13.7887 12.1704 13.9994 11.64 13.9994Z" fill="#3E3E40"/>
</svg>
