<svg width="34" height="34" viewBox="0 0 34 34" fill="none" xmlns="http://www.w3.org/2000/svg">
<path d="M17 34C26.3891 34 34 26.3891 34 17V5.1C34 3.7474 33.4627 2.45019 32.5063 1.49376C31.5499 0.53732 30.2526 0 28.9 0H17.85V7.4579C17.85 9.1596 17.9537 10.9225 18.8462 12.3709C19.4852 13.4089 20.3399 14.2974 21.3525 14.976C22.365 15.6546 23.5117 16.1074 24.7146 16.3038L25.0402 16.3565C25.1744 16.4024 25.2909 16.4891 25.3734 16.6045C25.4559 16.7199 25.5003 16.8582 25.5003 17C25.5003 17.1418 25.4559 17.2801 25.3734 17.3955C25.2909 17.5109 25.1744 17.5976 25.0402 17.6434L24.7146 17.6961C22.957 17.9833 21.3339 18.8152 20.0746 20.0746C18.8153 21.3339 17.9833 22.9569 17.6962 24.7146L17.6435 25.0401C17.5976 25.1744 17.5109 25.2909 17.3955 25.3734C17.2802 25.4559 17.1419 25.5002 17 25.5002C16.8582 25.5002 16.7199 25.4559 16.6045 25.3734C16.4892 25.2909 16.4025 25.1744 16.3566 25.0401L16.3039 24.7146C16.1074 23.5116 15.6545 22.365 14.9759 21.3525C14.2974 20.3399 13.4089 19.4852 12.3709 18.8462C10.9225 17.9537 9.15964 17.85 7.45794 17.85H0.0204407C0.464991 26.8438 7.89654 34 17 34Z" fill="#614FE0"/>
<path d="M0 16.1501H7.4579C9.1596 16.1501 10.9225 16.0464 12.3709 15.1539C13.5031 14.4563 14.4562 13.5032 15.1538 12.371C16.0463 10.9226 16.15 9.1597 16.15 7.458V0.000102732H5.1C3.7474 0.000102732 2.45019 0.537423 1.49376 1.49386C0.53732 2.45029 0 3.7475 0 5.1001V16.1501Z" fill="#614FE0"/>
</svg>
