<svg width="32" height="32" viewBox="0 0 32 32" fill="none" xmlns="http://www.w3.org/2000/svg">
<path d="M28 21.3327H9.33332C8.9797 21.3327 8.64056 21.1922 8.39051 20.9422C8.14047 20.6921 7.99999 20.353 7.99999 19.9993C7.99999 19.6457 8.14047 19.3066 8.39051 19.0565C8.64056 18.8065 8.9797 18.666 9.33332 18.666H23.2533C24.1449 18.6661 25.0109 18.3683 25.7138 17.8199C26.4168 17.2716 26.9164 16.5041 27.1333 15.6393L29.3333 6.98602C29.3833 6.78923 29.3876 6.58363 29.346 6.38491C29.3044 6.18619 29.218 5.99959 29.0933 5.83935C28.9637 5.67499 28.7971 5.54348 28.6072 5.45546C28.4172 5.36743 28.2092 5.32537 28 5.33268H9.01332C8.73824 4.55462 8.22923 3.88068 7.55608 3.40327C6.88292 2.92585 6.07858 2.66833 5.25332 2.66602H3.99999C3.64637 2.66602 3.30723 2.80649 3.05718 3.05654C2.80713 3.30659 2.66666 3.64573 2.66666 3.99935C2.66666 4.35297 2.80713 4.69211 3.05718 4.94216C3.30723 5.19221 3.64637 5.33268 3.99999 5.33268H5.25332C5.5579 5.32381 5.85633 5.41953 6.09893 5.6039C6.34153 5.78827 6.51366 6.05018 6.58666 6.34602L6.66666 6.98602L8.97332 15.9993C7.91246 16.0471 6.91401 16.5143 6.19762 17.2982C5.48123 18.0821 5.10558 19.1185 5.15332 20.1793C5.20106 21.2402 5.66827 22.2387 6.45217 22.9551C7.23608 23.6714 8.27246 24.0471 9.33332 23.9993H9.57332C9.35404 24.6035 9.28357 25.2516 9.3679 25.8888C9.45222 26.526 9.68885 27.1335 10.0577 27.6598C10.4266 28.1862 10.9169 28.6159 11.4871 28.9125C12.0573 29.2092 12.6906 29.364 13.3333 29.364C13.9761 29.364 14.6093 29.2092 15.1795 28.9125C15.7497 28.6159 16.24 28.1862 16.6089 27.6598C16.9778 27.1335 17.2144 26.526 17.2987 25.8888C17.3831 25.2516 17.3126 24.6035 17.0933 23.9993H20.24C20.0207 24.6035 19.9502 25.2516 20.0346 25.8888C20.1189 26.526 20.3555 27.1335 20.7244 27.6598C21.0933 28.1862 21.5836 28.6159 22.1538 28.9125C22.724 29.2092 23.3573 29.364 24 29.364C24.6427 29.364 25.276 29.2092 25.8462 28.9125C26.4164 28.6159 26.9067 28.1862 27.2756 27.6598C27.6445 27.1335 27.8811 26.526 27.9654 25.8888C28.0497 25.2516 27.9793 24.6035 27.76 23.9993H28C28.3536 23.9993 28.6927 23.8589 28.9428 23.6088C29.1928 23.3588 29.3333 23.0196 29.3333 22.666C29.3333 22.3124 29.1928 21.9733 28.9428 21.7232C28.6927 21.4732 28.3536 21.3327 28 21.3327ZM26.2933 7.99935L24.5467 14.986C24.4737 15.2819 24.3015 15.5438 24.0589 15.7281C23.8163 15.9125 23.5179 16.0082 23.2133 15.9993H11.7067L9.70666 7.99935H26.2933ZM13.3333 26.666C13.0696 26.666 12.8118 26.5878 12.5926 26.4413C12.3733 26.2948 12.2024 26.0866 12.1015 25.8429C12.0006 25.5993 11.9742 25.3312 12.0256 25.0726C12.0771 24.8139 12.204 24.5763 12.3905 24.3899C12.577 24.2034 12.8146 24.0764 13.0732 24.025C13.3318 23.9735 13.5999 23.9999 13.8436 24.1008C14.0872 24.2018 14.2954 24.3727 14.4419 24.5919C14.5885 24.8112 14.6667 25.069 14.6667 25.3327C14.6667 25.6863 14.5262 26.0254 14.2761 26.2755C14.0261 26.5255 13.6869 26.666 13.3333 26.666ZM24 26.666C23.7363 26.666 23.4785 26.5878 23.2592 26.4413C23.04 26.2948 22.8691 26.0866 22.7681 25.8429C22.6672 25.5993 22.6408 25.3312 22.6923 25.0726C22.7437 24.8139 22.8707 24.5763 23.0572 24.3899C23.2436 24.2034 23.4812 24.0764 23.7399 24.025C23.9985 23.9735 24.2666 23.9999 24.5102 24.1008C24.7539 24.2018 24.9621 24.3727 25.1086 24.5919C25.2551 24.8112 25.3333 25.069 25.3333 25.3327C25.3333 25.6863 25.1928 26.0254 24.9428 26.2755C24.6928 26.5255 24.3536 26.666 24 26.666Z" fill="#3E3E40"/>
</svg>
