<svg width="24" height="24" viewBox="0 0 24 24" fill="none" xmlns="http://www.w3.org/2000/svg">
<path d="M21.71 20.2894L18 16.6094C19.4401 14.8138 20.1375 12.5347 19.9488 10.2407C19.7601 7.94672 18.6997 5.8122 16.9855 4.27606C15.2714 2.73992 13.0338 1.91893 10.7329 1.98189C8.43207 2.04485 6.24275 2.98698 4.61517 4.61456C2.98759 6.24214 2.04546 8.43145 1.9825 10.7323C1.91954 13.0332 2.74053 15.2708 4.27667 16.9849C5.81281 18.6991 7.94733 19.7595 10.2413 19.9482C12.5353 20.1369 14.8144 19.4395 16.61 17.9994L20.29 21.6794C20.383 21.7731 20.4936 21.8475 20.6154 21.8983C20.7373 21.9491 20.868 21.9752 21 21.9752C21.132 21.9752 21.2627 21.9491 21.3846 21.8983C21.5065 21.8475 21.6171 21.7731 21.71 21.6794C21.8903 21.493 21.991 21.2438 21.991 20.9844C21.991 20.7251 21.8903 20.4759 21.71 20.2894ZM11 17.9994C9.61556 17.9994 8.26218 17.5889 7.11103 16.8197C5.95989 16.0505 5.06268 14.9573 4.53287 13.6782C4.00306 12.3991 3.86443 10.9917 4.13453 9.63378C4.40463 8.27592 5.07131 7.02864 6.05028 6.04967C7.02925 5.0707 8.27653 4.40402 9.63439 4.13392C10.9923 3.86382 12.3997 4.00245 13.6788 4.53226C14.9579 5.06207 16.0511 5.95928 16.8203 7.11042C17.5895 8.26157 18 9.61495 18 10.9994C18 12.8559 17.2625 14.6364 15.9498 15.9492C14.637 17.2619 12.8565 17.9994 11 17.9994Z" fill="#3E3E40"/>
</svg>
