<svg width="32" height="32" viewBox="0 0 32 32" fill="none" xmlns="http://www.w3.org/2000/svg">
<path d="M29.3333 16H21.3333L18.6667 20H13.3333L10.6667 16H2.66667" stroke="#3E3E40" stroke-width="3" stroke-linecap="round" stroke-linejoin="round"/>
<path d="M7.26667 6.81398L2.66667 16.0006V24.0006C2.66667 24.7079 2.94762 25.3862 3.44772 25.8863C3.94782 26.3864 4.62609 26.6673 5.33334 26.6673H26.6667C27.3739 26.6673 28.0522 26.3864 28.5523 25.8863C29.0524 25.3862 29.3333 24.7079 29.3333 24.0006V16.0006L24.7333 6.81398C24.5126 6.3697 24.1722 5.99581 23.7506 5.73436C23.329 5.4729 22.8428 5.33425 22.3467 5.33398H9.65334C9.15723 5.33425 8.67102 5.4729 8.2494 5.73436C7.82777 5.99581 7.48744 6.3697 7.26667 6.81398V6.81398Z" stroke="#3E3E40" stroke-width="3" stroke-linecap="round" stroke-linejoin="round"/>
</svg>
