<svg width="160" height="206" viewBox="0 0 160 206" fill="none" xmlns="http://www.w3.org/2000/svg">
<path d="M25.6 206H134.4C143.361 206 147.841 206 151.264 204.256C154.274 202.722 156.722 200.274 158.256 197.264C160 193.841 160 189.361 160 180.4V47.4969C160 42.6758 160 40.2653 159.355 38.0626C158.783 36.112 157.846 34.2881 156.591 32.6886C155.175 30.8823 153.215 29.4799 149.293 26.6751L118.68 4.7782C116.2 3.00401 114.96 2.11692 113.604 1.48761C112.401 0.929136 111.133 0.522403 109.83 0.276776C108.361 0 106.836 0 103.787 0H56.2132C53.1635 0 51.6387 0 50.1701 0.276776C48.8667 0.522403 47.599 0.929136 46.396 1.48761C45.0404 2.11692 43.8002 3.00401 41.3198 4.7782L10.7066 26.6751C6.78538 29.4799 4.82476 30.8823 3.40857 32.6886C2.15449 34.2881 1.21667 36.112 0.645265 38.0626C0 40.2653 0 42.6758 0 47.4969V180.4C0 189.361 0 193.841 1.7439 197.264C3.27787 200.274 5.72556 202.722 8.73615 204.256C12.1587 206 16.6392 206 25.6 206Z" fill="#FFDAD1"/>
</svg>
