<svg width="24" height="24" viewBox="0 0 24 24" fill="none" xmlns="http://www.w3.org/2000/svg">
<path d="M21.71 20.2904L18 16.6104C19.4401 14.8148 20.1375 12.5357 19.9488 10.2417C19.7601 7.94769 18.6997 5.81318 16.9855 4.27704C15.2714 2.7409 13.0338 1.9199 10.7329 1.98286C8.43203 2.04582 6.24272 2.98795 4.61514 4.61553C2.98756 6.24311 2.04543 8.43243 1.98247 10.7333C1.91951 13.0342 2.7405 15.2718 4.27664 16.9859C5.81278 18.7001 7.9473 19.7605 10.2413 19.9492C12.5353 20.1379 14.8144 19.4405 16.61 18.0004L20.29 21.6804C20.383 21.7741 20.4936 21.8485 20.6154 21.8993C20.7373 21.9501 20.868 21.9762 21 21.9762C21.132 21.9762 21.2627 21.9501 21.3846 21.8993C21.5064 21.8485 21.617 21.7741 21.71 21.6804C21.8902 21.4939 21.991 21.2447 21.991 20.9854C21.991 20.7261 21.8902 20.4769 21.71 20.2904ZM11 18.0004C9.61553 18.0004 8.26215 17.5899 7.111 16.8207C5.95986 16.0515 5.06265 14.9583 4.53284 13.6792C4.00303 12.4001 3.8644 10.9926 4.1345 9.63476C4.4046 8.27689 5.07128 7.02961 6.05025 6.05065C7.02922 5.07168 8.2765 4.40499 9.63436 4.1349C10.9922 3.8648 12.3997 4.00342 13.6788 4.53324C14.9579 5.06305 16.0511 5.96026 16.8203 7.1114C17.5895 8.26255 18 9.61592 18 11.0004C18 12.8569 17.2625 14.6374 15.9497 15.9501C14.637 17.2629 12.8565 18.0004 11 18.0004Z" fill="#868687"/>
</svg>
